<svg xmlns="http://www.w3.org/2000/svg" version="1.1" xmlns:xlink="http://www.w3.org/1999/xlink" xmlns:svgjs="http://svgjs.dev/svgjs" width="256" height="256"><svg width="256" height="256" viewBox="0 0 256 256" fill="none" xmlns="http://www.w3.org/2000/svg">
<g clip-path="url(#clip0_3_105)">
<path d="M123.682 134.739C133.994 141.343 143.685 148.561 152.707 156.328C161.183 163.604 163.913 175.739 157.89 185.144C136.446 218.631 97.9532 232.259 71.9032 215.578C45.8532 198.897 42.1359 158.239 63.5802 124.751C69.597 115.355 81.7752 112.755 91.9212 117.403C102.901 122.431 113.514 128.224 123.682 134.739ZM123.682 134.739C149.579 151.323 171.486 171.785 189.12 194.883C176.179 212.704 160.984 228.774 143.914 242.692M123.682 134.739C97.7848 118.155 70.0343 106.82 41.6685 100.46C30.6887 120.079 22.5484 140.604 17.1672 161.528M123.682 134.739C126.415 136.49 129.474 137.668 132.676 138.202C135.877 138.737 139.153 138.617 142.306 137.849C145.46 137.081 148.425 135.681 151.022 133.735C153.619 131.789 155.794 129.336 157.416 126.525M123.682 134.739C120.949 132.989 118.598 130.703 116.774 128.019C114.949 125.336 113.687 122.309 113.066 119.124C112.444 115.939 112.474 112.66 113.156 109.487C113.837 106.314 115.155 103.312 117.03 100.663M157.416 126.525C160.502 121.177 161.408 114.846 159.946 108.848C158.484 102.849 154.767 97.6451 149.567 94.3167M157.416 126.525C174.315 135.262 192.149 142.086 210.566 146.855C216.554 136.415 221.736 125.712 226.107 114.831M117.03 100.663C120.596 95.6229 125.967 92.1513 132.027 90.9694C138.086 89.7875 144.368 90.9863 149.567 94.3167M117.03 100.663C101.764 88.7593 88.179 75.3988 76.3365 60.8996C83.2183 51.2163 90.7645 42.0229 98.9206 33.3856M149.567 94.3167C158.505 100.04 167.732 104.936 177.172 109.005C181.172 110.73 185.879 110.045 188.697 106.733C194.064 100.377 197.334 92.5148 198.055 84.2265M149.567 94.3167C140.629 88.5932 132.331 82.2662 124.677 75.3888C121.446 72.4835 120.089 67.9163 121.919 63.9709C125.423 56.4069 131.213 50.1331 138.472 46.0336M138.472 46.0336C136.277 41.0355 134.722 35.7874 133.855 30.3981C138.107 25.1416 143.309 20.9743 149.06 18.007M138.472 46.0336C144.806 42.4387 151.996 40.6504 159.276 40.8447C166.557 41.039 173.647 43.2175 179.78 47.1452C185.914 51.0728 190.858 56.6006 194.081 63.1322C197.303 69.6638 198.682 76.9513 198.066 84.2085C203.53 84.1226 208.954 83.3273 214.188 81.8786C217.131 75.9405 218.804 69.4541 219.101 62.8333" stroke="#5C26CE" stroke-width="14.5" stroke-linecap="round" stroke-linejoin="round"></path>
</g>
<defs>
<clipPath id="SvgjsClipPath1005">
<rect width="256" height="256" fill="white"></rect>
</clipPath>
</defs>
</svg><style>@media (prefers-color-scheme: light) { :root { filter: none; } }
@media (prefers-color-scheme: dark) { :root { filter: none; } }
</style></svg>